<svg width="32" height="32" xmlns="http://www.w3.org/2000/svg">

 <g>
  <title>background</title>
  <rect fill="none" id="canvas_background" height="402" width="582" y="-1" x="-1"/>
 </g>
 <g>
  <title>Layer 1</title>
  <path stroke="#f58426" fill="#006bb6" id="svg_1" d="m3.129359,7.526703l25.622944,0c1.178655,0 2.135245,-1.110715 2.135245,-2.479275s-0.95659,-2.479275 -2.135245,-2.479275l-25.622944,0c-1.178655,0 -2.135245,1.110715 -2.135245,2.479275s0.95659,2.479275 2.135245,2.479275zm25.622944,4.958551l-25.622944,0c-1.178655,0 -2.135245,1.110715 -2.135245,2.479275s0.95659,2.479275 2.135245,2.479275l25.622944,0c1.178655,0 2.135245,-1.110715 2.135245,-2.479275s-0.95659,-2.479275 -2.135245,-2.479275zm0,9.917102l-25.622944,0c-1.178655,0 -2.135245,1.110715 -2.135245,2.479275s0.95659,2.479275 2.135245,2.479275l25.622944,0c1.178655,0 2.135245,-1.110715 2.135245,-2.479275s-0.95659,-2.479275 -2.135245,-2.479275z"/>
 </g>
</svg>